<mxfile host="app.diagrams.net" modified="2023-11-24T01:25:27.472Z" agent="Mozilla/5.0 (Macintosh; Intel Mac OS X 10_15_7) AppleWebKit/537.36 (KHTML, like Gecko) Chrome/119.0.0.0 Safari/537.36" etag="8KRfR3HQg9jIfprHhoA2" version="22.1.3" type="github">
  <diagram name="Page-1" id="a5URv9w8rNcJ5y0hhJnA">
    <mxGraphModel dx="2335" dy="1625" grid="0" gridSize="10" guides="1" tooltips="1" connect="1" arrows="1" fold="1" page="1" pageScale="1" pageWidth="1920" pageHeight="1200" background="none" math="0" shadow="1">
      <root>
        <mxCell id="0" />
        <mxCell id="1" parent="0" />
        <mxCell id="HYr3GOrnbu1MXTeCl2gx-1" value="" style="whiteSpace=wrap;html=1;aspect=fixed;fillColor=#d5e8d4;strokeColor=#82b366;rounded=1;" vertex="1" parent="1">
          <mxGeometry x="165" y="390" width="1590" height="1590" as="geometry" />
        </mxCell>
        <mxCell id="HYr3GOrnbu1MXTeCl2gx-3" value="Zuzalu Communication Hub" style="text;html=1;strokeColor=none;fillColor=none;align=center;verticalAlign=middle;whiteSpace=wrap;rounded=1;fontSize=69;" vertex="1" parent="1">
          <mxGeometry x="930" y="2150" width="60" height="30" as="geometry" />
        </mxCell>
        <mxCell id="HYr3GOrnbu1MXTeCl2gx-4" value="" style="shape=cube;whiteSpace=wrap;html=1;boundedLbl=1;backgroundOutline=1;darkOpacity=0.05;darkOpacity2=0.1;rounded=1;" vertex="1" parent="1">
          <mxGeometry x="770" y="1040" width="425" height="270" as="geometry" />
        </mxCell>
        <mxCell id="HYr3GOrnbu1MXTeCl2gx-5" value="&lt;h1&gt;&lt;br&gt;&lt;/h1&gt;" style="text;html=1;strokeColor=none;fillColor=none;spacing=5;spacingTop=-20;whiteSpace=wrap;overflow=hidden;rounded=1;" vertex="1" parent="1">
          <mxGeometry x="853" y="1095" width="190" height="135" as="geometry" />
        </mxCell>
        <mxCell id="HYr3GOrnbu1MXTeCl2gx-6" value="&lt;b&gt;&lt;font style=&quot;font-size: 24px;&quot;&gt;Calender Application with Interactive Telegram Bot Commands and RSVP Functions that can Comminicate with a Conference Suit such as Google Meet, Zoom, or Jitsi&lt;/font&gt;&lt;/b&gt;" style="rounded=1;whiteSpace=wrap;html=1;" vertex="1" parent="1">
          <mxGeometry x="390" y="680" width="370" height="210" as="geometry" />
        </mxCell>
        <mxCell id="HYr3GOrnbu1MXTeCl2gx-10" style="rounded=1;orthogonalLoop=1;jettySize=auto;html=1;edgeStyle=elbowEdgeStyle;elbow=vertical;startArrow=block;startFill=1;entryX=0.259;entryY=0;entryDx=0;entryDy=0;entryPerimeter=0;" edge="1" parent="1" source="HYr3GOrnbu1MXTeCl2gx-6" target="HYr3GOrnbu1MXTeCl2gx-4">
          <mxGeometry relative="1" as="geometry" />
        </mxCell>
        <mxCell id="HYr3GOrnbu1MXTeCl2gx-14" value="&lt;font style=&quot;font-size: 24px;&quot;&gt;&lt;b&gt;Zuzalu Agora&amp;nbsp;&lt;br&gt;Discourse Forum&lt;/b&gt;&lt;/font&gt;" style="html=1;whiteSpace=wrap;rounded=1;" vertex="1" parent="1">
          <mxGeometry x="1240" y="680" width="340" height="200" as="geometry" />
        </mxCell>
        <mxCell id="HYr3GOrnbu1MXTeCl2gx-15" style="edgeStyle=orthogonalEdgeStyle;rounded=1;orthogonalLoop=1;jettySize=auto;html=1;exitX=0.5;exitY=1;exitDx=0;exitDy=0;entryX=0.541;entryY=0;entryDx=0;entryDy=0;entryPerimeter=0;" edge="1" parent="1" source="HYr3GOrnbu1MXTeCl2gx-14" target="HYr3GOrnbu1MXTeCl2gx-4">
          <mxGeometry relative="1" as="geometry" />
        </mxCell>
        <mxCell id="HYr3GOrnbu1MXTeCl2gx-16" value="&lt;div style=&quot;border-color: var(--border-color); color: rgb(0, 0, 0); font-family: Helvetica; font-size: 12px; font-style: normal; font-variant-ligatures: normal; font-variant-caps: normal; font-weight: 400; letter-spacing: normal; orphans: 2; text-align: left; text-indent: 0px; text-transform: none; widows: 2; word-spacing: 0px; -webkit-text-stroke-width: 0px; text-decoration-thickness: initial; text-decoration-style: initial; text-decoration-color: initial; box-sizing: border-box; width: 470px; background: rgb(228, 228, 228); padding: 2px;&quot;&gt;&lt;font style=&quot;border-color: var(--border-color); font-size: 24px;&quot;&gt;&lt;b style=&quot;border-color: var(--border-color);&quot;&gt;zAPPs&lt;/b&gt;&lt;/font&gt;&lt;/div&gt;&lt;font style=&quot;border-color: var(--border-color); color: rgb(0, 0, 0); font-family: Helvetica; font-style: normal; font-variant-ligatures: normal; font-variant-caps: normal; font-weight: 400; letter-spacing: normal; orphans: 2; text-align: left; text-indent: 0px; text-transform: none; widows: 2; word-spacing: 0px; -webkit-text-stroke-width: 0px; background-color: rgb(251, 251, 251); text-decoration-thickness: initial; text-decoration-style: initial; text-decoration-color: initial; font-size: 24px;&quot;&gt;&lt;div style=&quot;border-color: var(--border-color);&quot;&gt;&lt;ul style=&quot;border-color: var(--border-color);&quot;&gt;&lt;li style=&quot;border-color: var(--border-color);&quot;&gt;&lt;b style=&quot;border-color: var(--border-color); background-color: initial;&quot;&gt;&amp;nbsp;ZuPass&lt;/b&gt;&lt;/li&gt;&lt;li style=&quot;border-color: var(--border-color);&quot;&gt;&lt;b style=&quot;border-color: var(--border-color); background-color: initial;&quot;&gt;&amp;nbsp;ZuRat&lt;/b&gt;&lt;/li&gt;&lt;li style=&quot;border-color: var(--border-color);&quot;&gt;&lt;b style=&quot;border-color: var(--border-color); background-color: initial;&quot;&gt;&amp;nbsp;ZuPoll&lt;/b&gt;&lt;/li&gt;&lt;li style=&quot;border-color: var(--border-color);&quot;&gt;&lt;b style=&quot;border-color: var(--border-color); background-color: initial;&quot;&gt;&amp;nbsp;ZuKat&lt;/b&gt;&lt;/li&gt;&lt;li style=&quot;border-color: var(--border-color);&quot;&gt;&lt;b style=&quot;border-color: var(--border-color); background-color: initial;&quot;&gt;&amp;nbsp;Rubber Ducky&lt;/b&gt;&lt;/li&gt;&lt;li style=&quot;border-color: var(--border-color);&quot;&gt;&lt;b style=&quot;border-color: var(--border-color); background-color: initial;&quot;&gt;&amp;nbsp;ZuCast&lt;/b&gt;&lt;/li&gt;&lt;li style=&quot;border-color: var(--border-color);&quot;&gt;&lt;b style=&quot;border-color: var(--border-color); background-color: initial;&quot;&gt;Frogelion (ZuFrog)&lt;/b&gt;&lt;/li&gt;&lt;/ul&gt;&lt;/div&gt;&lt;/font&gt;" style="verticalAlign=top;align=left;overflow=fill;html=1;whiteSpace=wrap;rounded=1;" vertex="1" parent="1">
          <mxGeometry x="350" y="1480" width="470" height="300" as="geometry" />
        </mxCell>
        <mxCell id="HYr3GOrnbu1MXTeCl2gx-17" style="edgeStyle=orthogonalEdgeStyle;rounded=1;orthogonalLoop=1;jettySize=auto;html=1;exitX=0.5;exitY=0;exitDx=0;exitDy=0;entryX=0.188;entryY=0.991;entryDx=0;entryDy=0;entryPerimeter=0;startArrow=block;startFill=1;" edge="1" parent="1" source="HYr3GOrnbu1MXTeCl2gx-16" target="HYr3GOrnbu1MXTeCl2gx-4">
          <mxGeometry relative="1" as="geometry">
            <Array as="points">
              <mxPoint x="585" y="1420" />
              <mxPoint x="850" y="1420" />
            </Array>
          </mxGeometry>
        </mxCell>
        <mxCell id="HYr3GOrnbu1MXTeCl2gx-18" value="&lt;font style=&quot;font-size: 24px;&quot;&gt;&lt;b&gt;Telegram Groups for Working Groups&lt;/b&gt;&lt;/font&gt;" style="html=1;whiteSpace=wrap;rounded=1;" vertex="1" parent="1">
          <mxGeometry x="310" y="1095" width="270" height="140" as="geometry" />
        </mxCell>
        <mxCell id="HYr3GOrnbu1MXTeCl2gx-19" style="edgeStyle=orthogonalEdgeStyle;rounded=1;orthogonalLoop=1;jettySize=auto;html=1;exitX=1;exitY=0.5;exitDx=0;exitDy=0;entryX=0;entryY=0;entryDx=0;entryDy=125;entryPerimeter=0;" edge="1" parent="1" source="HYr3GOrnbu1MXTeCl2gx-18" target="HYr3GOrnbu1MXTeCl2gx-4">
          <mxGeometry relative="1" as="geometry" />
        </mxCell>
        <mxCell id="HYr3GOrnbu1MXTeCl2gx-23" style="edgeStyle=orthogonalEdgeStyle;rounded=1;orthogonalLoop=1;jettySize=auto;html=1;exitX=0;exitY=0.5;exitDx=0;exitDy=0;entryX=0;entryY=0.5;entryDx=0;entryDy=0;" edge="1" parent="1" source="HYr3GOrnbu1MXTeCl2gx-20" target="HYr3GOrnbu1MXTeCl2gx-18">
          <mxGeometry relative="1" as="geometry" />
        </mxCell>
        <mxCell id="HYr3GOrnbu1MXTeCl2gx-20" value="&lt;font style=&quot;font-size: 24px;&quot;&gt;&lt;b&gt;Skiff Survey Forms&lt;/b&gt;&lt;/font&gt;" style="html=1;whiteSpace=wrap;rounded=1;" vertex="1" parent="1">
          <mxGeometry x="300" y="1280" width="290" height="120" as="geometry" />
        </mxCell>
        <mxCell id="HYr3GOrnbu1MXTeCl2gx-22" style="edgeStyle=orthogonalEdgeStyle;rounded=1;orthogonalLoop=1;jettySize=auto;html=1;exitX=1;exitY=0.5;exitDx=0;exitDy=0;startArrow=block;startFill=1;" edge="1" parent="1" source="HYr3GOrnbu1MXTeCl2gx-20" target="HYr3GOrnbu1MXTeCl2gx-4">
          <mxGeometry relative="1" as="geometry">
            <mxPoint x="760" y="1237" as="targetPoint" />
            <Array as="points">
              <mxPoint x="650" y="1340" />
              <mxPoint x="650" y="1237" />
            </Array>
          </mxGeometry>
        </mxCell>
        <mxCell id="HYr3GOrnbu1MXTeCl2gx-24" value="&lt;p style=&quot;margin: 4px 0px 0px; text-align: center; font-size: 24px;&quot;&gt;&lt;font style=&quot;font-size: 24px;&quot;&gt;&lt;br&gt;&lt;b style=&quot;&quot;&gt;Optional&lt;/b&gt;&lt;/font&gt;&lt;/p&gt;&lt;p style=&quot;margin: 4px 0px 0px; text-align: center; font-size: 24px;&quot;&gt;&lt;font style=&quot;font-size: 24px;&quot;&gt;&lt;b style=&quot;&quot;&gt;&lt;br&gt;&lt;/b&gt;&lt;/font&gt;&lt;/p&gt;&lt;p style=&quot;margin: 4px 0px 0px; font-size: 24px;&quot;&gt;&lt;/p&gt;&lt;ul&gt;&lt;li&gt;&lt;b style=&quot;&quot;&gt;&lt;font style=&quot;font-size: 24px;&quot;&gt;Jubmoji Quests&lt;/font&gt;&lt;/b&gt;&lt;/li&gt;&lt;li&gt;&lt;b style=&quot;&quot;&gt;&lt;font style=&quot;font-size: 24px;&quot;&gt;Stream ETH Media Content Delivery&lt;/font&gt;&lt;/b&gt;&lt;/li&gt;&lt;/ul&gt;&lt;p&gt;&lt;/p&gt;" style="verticalAlign=top;align=left;overflow=fill;fontSize=12;fontFamily=Helvetica;html=1;whiteSpace=wrap;rounded=1;" vertex="1" parent="1">
          <mxGeometry x="1303" y="1433" width="405" height="286" as="geometry" />
        </mxCell>
        <mxCell id="HYr3GOrnbu1MXTeCl2gx-25" style="edgeStyle=orthogonalEdgeStyle;rounded=1;orthogonalLoop=1;jettySize=auto;html=1;exitX=0.5;exitY=0;exitDx=0;exitDy=0;entryX=0;entryY=0;entryDx=425;entryDy=145;entryPerimeter=0;startArrow=block;startFill=1;" edge="1" parent="1" source="HYr3GOrnbu1MXTeCl2gx-24" target="HYr3GOrnbu1MXTeCl2gx-4">
          <mxGeometry relative="1" as="geometry" />
        </mxCell>
        <mxCell id="HYr3GOrnbu1MXTeCl2gx-26" value="&lt;b style=&quot;font-size: 16px;&quot;&gt;Separate&lt;br&gt;ZuConnect&lt;br&gt;Layer Connected to All&lt;br&gt;&lt;/b&gt;" style="ellipse;shape=umlControl;whiteSpace=wrap;html=1;rounded=1;" vertex="1" parent="1">
          <mxGeometry x="1058" y="1143" width="120" height="148" as="geometry" />
        </mxCell>
        <mxCell id="HYr3GOrnbu1MXTeCl2gx-27" value="&lt;h1 style=&quot;border-color: var(--border-color); color: rgb(0, 0, 0); font-family: Helvetica; font-style: normal; font-variant-ligatures: normal; font-variant-caps: normal; letter-spacing: normal; orphans: 2; text-indent: 0px; text-transform: none; widows: 2; word-spacing: 0px; -webkit-text-stroke-width: 0px; background-color: rgb(251, 251, 251); text-decoration-thickness: initial; text-decoration-style: initial; text-decoration-color: initial; font-size: 16px;&quot;&gt;&lt;font style=&quot;font-size: 16px;&quot;&gt;Telegram Group&lt;/font&gt;&lt;/h1&gt;&lt;div style=&quot;border-color: var(--border-color); color: rgb(0, 0, 0); font-family: Helvetica; font-style: normal; font-variant-ligatures: normal; font-variant-caps: normal; font-weight: 400; letter-spacing: normal; orphans: 2; text-indent: 0px; text-transform: none; widows: 2; word-spacing: 0px; -webkit-text-stroke-width: 0px; background-color: rgb(251, 251, 251); text-decoration-thickness: initial; text-decoration-style: initial; text-decoration-color: initial; font-size: 16px;&quot;&gt;&lt;font style=&quot;border-color: var(--border-color); font-size: 16px;&quot; color=&quot;#ff0f1f&quot;&gt;with ZuPass integration&lt;/font&gt;&lt;/div&gt;" style="shape=umlBoundary;whiteSpace=wrap;html=1;rounded=1;align=center;" vertex="1" parent="1">
          <mxGeometry x="787" y="1072.5" width="243" height="225" as="geometry" />
        </mxCell>
        <mxCell id="HYr3GOrnbu1MXTeCl2gx-36" value="" style="endArrow=classic;html=1;rounded=1;entryX=0.34;entryY=0.141;entryDx=0;entryDy=0;entryPerimeter=0;" edge="1" parent="1" source="HYr3GOrnbu1MXTeCl2gx-27" target="HYr3GOrnbu1MXTeCl2gx-26">
          <mxGeometry width="50" height="50" relative="1" as="geometry">
            <mxPoint x="1104" y="1249" as="sourcePoint" />
            <mxPoint x="1154" y="1199" as="targetPoint" />
          </mxGeometry>
        </mxCell>
      </root>
    </mxGraphModel>
  </diagram>
</mxfile>
